<svg width="24" height="24" viewBox="0 0 24 24" fill="none" xmlns="http://www.w3.org/2000/svg">
<g id="lineicons:behance">
<path id="Vector" d="M10.097 11.323C10.645 11.097 11.065 10.743 11.323 10.323C11.581 9.90298 11.742 9.35498 11.742 8.77398C11.742 8.22598 11.645 7.74198 11.484 7.32298C11.29 6.90298 11.032 6.58098 10.677 6.35498C10.3054 6.10631 9.88955 5.93115 9.452 5.83898C8.92984 5.74673 8.4002 5.70354 7.87 5.70998H2V17.968H7.968C8.516 17.968 9.065 17.936 9.548 17.742C10.0582 17.6198 10.5403 17.4009 10.968 17.097C11.388 16.839 11.71 16.452 11.935 15.968C12.161 15.516 12.29 14.968 12.29 14.323C12.29 13.549 12.097 12.871 11.742 12.355C11.355 11.903 10.806 11.549 10.097 11.323ZM4.742 7.83898H7.29C7.516 7.83898 7.742 7.87098 7.968 7.87098C8.194 7.87098 8.419 8.00098 8.548 8.09698C8.74088 8.18808 8.89128 8.34994 8.968 8.54898C9.065 8.74198 9.097 8.96798 9.097 9.29098C9.097 9.77398 8.967 10.194 8.645 10.42C8.28318 10.6318 7.87127 10.743 7.452 10.742H4.742V7.83898ZM9.452 15.097C9.355 15.323 9.226 15.452 9 15.581C8.806 15.71 8.58 15.807 8.355 15.807C8.129 15.839 7.871 15.839 7.613 15.839H4.71V12.516H7.677C8.258 12.516 8.71 12.646 9.097 12.936C9.452 13.194 9.645 13.678 9.645 14.291C9.581 14.613 9.581 14.871 9.452 15.097ZM21.807 12.194C21.677 11.549 21.387 11 21.032 10.516C20.6676 10.0289 20.2063 9.62271 19.677 9.32298C19.0623 9.03012 18.3909 8.87582 17.71 8.87098C17.032 8.87098 16.387 9.00098 15.903 9.22598C15.3518 9.44877 14.8564 9.79018 14.452 10.226C14.032 10.646 13.71 11.129 13.484 11.71C13.247 12.3048 13.1265 12.9397 13.129 13.58C13.129 14.258 13.226 14.903 13.452 15.484C13.677 16.064 14 16.516 14.355 16.968C14.775 17.388 15.225 17.71 15.806 17.936C16.4115 18.1773 17.0583 18.2979 17.71 18.291C18.71 18.291 19.58 18.065 20.29 17.613C21.032 17.162 21.516 16.387 21.871 15.291H19.741C19.645 15.549 19.419 15.839 19.097 16.065C18.774 16.291 18.323 16.42 17.839 16.42C17.161 16.42 16.613 16.226 16.259 15.871C15.903 15.516 15.677 14.839 15.677 14.129H22C22 13.452 21.969 12.774 21.807 12.194ZM15.547 12.614C15.547 12.387 15.644 12.161 15.709 11.968C15.805 11.742 15.902 11.516 16.063 11.355C16.257 11.161 16.515 10.968 16.773 10.839C17.031 10.709 17.353 10.709 17.644 10.709C18.224 10.709 18.741 10.903 18.999 11.194C19.257 11.516 19.483 11.968 19.547 12.614H15.547ZM20.032 6.54898H15.032V7.77398H20.032V6.54898Z" fill="#E8F6EC"/>
</g>
</svg>
