<svg width="24" height="24" viewBox="0 0 24 24" fill="none" xmlns="http://www.w3.org/2000/svg">
<g id="tdesign:copyright-filled">
<path id="Vector" d="M12 1C18.075 1 23 5.925 23 12C23 18.075 18.075 23 12 23C5.925 23 1 18.075 1 12C1 5.925 5.925 1 12 1ZM9.525 14.476C9.19998 14.151 8.94216 13.7651 8.76626 13.3405C8.59036 12.9158 8.49982 12.4607 8.49982 12.001C8.49982 11.5414 8.59036 11.0862 8.76626 10.6615C8.94216 10.2369 9.19998 9.85102 9.525 9.526C9.85002 9.20098 10.2359 8.94316 10.6605 8.76726C11.0852 8.59136 11.5403 8.50082 12 8.50082C12.4597 8.50082 12.9148 8.59136 13.3395 8.76726C13.7641 8.94316 14.15 9.20098 14.475 9.526L15.182 10.233L16.596 8.819L15.889 8.112C15.1198 7.34279 14.1398 6.81894 13.0729 6.6067C12.006 6.39446 10.9001 6.50336 9.89512 6.91964C8.89012 7.33591 8.03112 8.04086 7.42676 8.94534C6.8224 9.84981 6.49983 10.9132 6.49983 12.001C6.49983 13.0888 6.8224 14.1522 7.42676 15.0567C8.03112 15.9611 8.89012 16.6661 9.89512 17.0824C10.9001 17.4986 12.006 17.6075 13.0729 17.3953C14.1398 17.1831 15.1198 16.6592 15.889 15.89L16.596 15.183L15.182 13.768L14.475 14.476C14.15 14.801 13.7641 15.0589 13.3395 15.2348C12.9148 15.4107 12.4597 15.5013 12 15.5013C11.5403 15.5013 11.0852 15.4107 10.6605 15.2348C10.2359 15.0589 9.85001 14.801 9.525 14.476Z" fill="#E8F6EC"/>
</g>
</svg>
