<svg width="20" height="22" viewBox="0 0 20 22" fill="none" xmlns="http://www.w3.org/2000/svg">
<g id="Group">
<path id="Vector" fill-rule="evenodd" clip-rule="evenodd" d="M10 0C15.523 0 20 4.477 20 10C20 15.523 15.523 20 10 20C4.477 20 0 15.523 0 10C0 4.477 4.477 0 10 0ZM11.617 11.984C9.06799 12.7345 6.83952 14.3086 5.28 16.46C6.64891 17.4634 8.30272 18.003 10 18C11.0383 18.0007 12.0667 17.7993 13.028 17.407C12.7123 15.5623 12.2403 13.7477 11.617 11.983V11.984ZM13.595 11.581C14.127 13.124 14.555 14.716 14.869 16.349C16.3364 15.2243 17.3689 13.626 17.791 11.826C16.4173 11.5002 14.9972 11.4173 13.595 11.581ZM10.351 8.912C7.67531 9.85614 4.82287 10.1923 2.001 9.896L2 10C2 11.927 2.682 13.695 3.817 15.076C5.59311 12.7185 8.068 10.9816 10.889 10.113C10.7177 9.70947 10.5383 9.30939 10.351 8.913V8.912ZM16.488 5.319C15.1931 6.45036 13.7506 7.40071 12.2 8.144C12.434 8.644 12.6567 9.14967 12.868 9.661C14.568 9.401 16.318 9.455 17.998 9.822C17.9646 8.20231 17.4378 6.63137 16.488 5.319ZM6.574 2.77C5.52882 3.26673 4.60352 3.98376 3.86162 4.87187C3.11972 5.75997 2.5788 6.79811 2.276 7.915C4.69141 8.15941 7.13117 7.88669 9.433 7.115C8.5958 5.5937 7.63983 4.14086 6.574 2.77ZM10 2C9.51933 2 9.051 2.041 8.595 2.123C9.59629 3.46809 10.4996 4.88341 11.298 6.358C12.6802 5.70006 13.9671 4.85845 15.124 3.856C13.6872 2.65446 11.873 1.99735 10 2Z" fill="#E8F6EC"/>
</g>
</svg>
