<svg width="526" height="468" viewBox="0 0 526 468" fill="none" xmlns="http://www.w3.org/2000/svg">
<g filter="url(#filter0_d_37_612)">
<path d="M235.641 60.0366L201.497 70L235.641 79.9592L200.083 79.8584L230.051 99.0799L195.965 88.9233L219.326 115.841L189.467 96.4515L204.332 128.886L181.121 101.838L186.281 137.162L171.6 104.643L166.641 140L161.682 104.643L147.002 137.162L152.161 101.838L128.955 128.886L143.816 96.4515L113.957 115.841L137.318 88.9233L103.232 99.0799L133.199 79.8584L97.6414 79.9592L131.786 70L97.6414 60.0366L133.199 60.1374L103.232 40.9201L137.318 51.0767L113.957 24.1591L143.816 43.5485L128.955 11.1138L152.161 38.1616L147.002 2.83409L161.682 35.3569L166.641 0L171.6 35.3569L186.281 2.83409L181.121 38.1616L204.332 11.1138L189.467 43.5485L219.326 24.1591L195.965 51.0767L230.051 40.9201L200.083 60.1374L235.641 60.0366Z" fill="#9FAAFF"/>
</g>
<path d="M304.486 170.608C302.6 166.288 295.275 165.304 282.723 167.665C271.318 169.807 256.991 174.51 242.376 180.898C227.761 187.286 214.591 194.618 205.271 201.53C195.012 209.149 190.766 215.191 192.656 219.506C193.876 222.303 197.369 223.695 203.097 223.695C206.563 223.642 210.018 223.291 213.424 222.648L213.46 222.69L213.539 222.622C213.832 222.57 214.12 222.528 214.419 222.465C225.824 220.318 240.151 215.616 254.739 209.227C269.328 202.839 282.529 195.513 291.85 188.601C302.129 180.961 306.376 174.928 304.486 170.608ZM253.315 205.865C241.695 210.939 230.275 214.93 220.451 217.386C229.217 211.301 240.957 204.923 253.964 199.241C264.454 194.649 275.293 190.898 286.378 188.025C277.544 194.052 265.982 200.336 253.315 205.865ZM293.421 182.699C281.482 184.961 266.191 189.884 252.477 195.885C235.851 203.153 221.174 211.594 211.968 219.166C205.915 220.15 197.233 220.779 196.033 218.045C194.709 215.013 202.6 208.096 207.475 204.472C216.576 197.717 229.505 190.538 243.868 184.255C258.232 177.971 272.281 173.363 283.425 171.263C287.033 170.565 290.694 170.18 294.369 170.111C297.736 170.111 300.511 170.635 301.176 172.075C302.145 174.405 297.715 179.039 293.4 182.699H293.421Z" fill="#FFBA30"/>
<path d="M349.341 181.437L338.198 155.946C334.077 146.521 320.74 142.002 300.621 143.185C281.126 144.337 257.342 150.673 233.657 161.026C209.973 171.378 189.148 184.548 175.082 198.084C160.557 212.039 154.823 224.91 158.944 234.326L170.087 259.822C173.752 268.252 184.859 272.772 201.579 272.772C203.534 272.772 205.562 272.709 207.664 272.583C227.159 271.431 250.943 265.095 274.627 254.737C298.312 244.38 319.137 231.22 333.202 217.689C347.728 203.729 353.457 190.852 349.341 181.437ZM162.3 232.859C158.891 225.067 164.479 213.354 177.622 200.718C191.404 187.48 211.827 174.578 235.124 164.393C258.421 154.208 281.759 147.971 300.841 146.851C302.847 146.725 304.779 146.673 306.638 146.673C321.661 146.673 331.804 150.479 334.841 157.418C338.245 165.21 332.663 176.924 319.514 189.559C305.737 202.802 285.315 215.71 262.018 225.895C238.721 236.08 215.382 242.306 196.301 243.437C178.099 244.51 165.709 240.656 162.3 232.859ZM330.663 215.055C316.88 228.293 296.458 241.196 273.161 251.381C249.864 261.566 226.525 267.807 207.444 268.928C189.242 269.975 176.852 266.147 173.449 258.35L166.437 242.316C172.045 245.579 180.178 247.281 190.436 247.281C192.389 247.281 194.415 247.223 196.515 247.097C216.016 245.95 239.8 239.609 263.484 229.257C287.169 218.904 307.994 205.745 322.054 192.209C331.553 183.076 337.292 174.405 338.973 166.885L346 182.909C349.393 190.701 343.806 202.43 330.663 215.05V215.055Z" fill="#FFBA30"/>
<path d="M334.841 157.397C331.804 150.459 321.661 146.652 306.638 146.652C304.779 146.652 302.847 146.704 300.841 146.83C281.759 147.95 258.426 154.161 235.124 164.372C211.821 174.583 191.404 187.459 177.622 200.697C164.479 213.333 158.891 225.047 162.3 232.838C165.709 240.63 178.099 244.489 196.301 243.416C215.382 242.285 238.716 236.085 262.018 225.874C285.32 215.663 305.737 202.781 319.514 189.538C332.663 176.924 338.245 165.21 334.841 157.397ZM291.871 188.569C282.55 195.482 269.354 202.807 254.76 209.196C240.166 215.584 225.824 220.287 214.44 222.434C214.141 222.496 213.853 222.538 213.56 222.591L213.481 222.659L213.445 222.617C210.039 223.26 206.584 223.61 203.118 223.664C197.395 223.664 193.897 222.266 192.677 219.475C190.787 215.16 195.033 209.117 205.292 201.498C214.612 194.586 227.808 187.26 242.397 180.867C256.986 174.473 271.339 169.776 282.744 167.634C295.311 165.272 302.642 166.257 304.507 170.577C306.371 174.897 302.129 180.961 291.871 188.59V188.569Z" fill="#212422"/>
<path d="M293.4 182.699C281.461 184.961 266.171 189.884 252.456 195.885C235.831 203.153 221.153 211.594 211.947 219.166C205.894 220.15 197.212 220.779 196.013 218.045C194.688 215.013 202.579 208.096 207.454 204.473C216.555 197.717 229.484 190.538 243.848 184.255C258.211 177.971 272.261 173.363 283.404 171.263C287.012 170.565 290.674 170.18 294.348 170.111C297.715 170.111 300.49 170.635 301.155 172.075C302.145 174.405 297.715 179.039 293.4 182.699Z" fill="#FFBA30"/>
<path d="M330.663 215.05C316.88 228.293 296.458 241.196 273.161 251.381C249.864 261.566 226.525 267.802 207.444 268.928C189.242 269.975 176.852 266.147 173.449 258.35L166.437 242.316C172.045 245.579 180.178 247.281 190.436 247.281C192.389 247.281 194.415 247.223 196.515 247.097C216.016 245.945 239.8 239.609 263.484 229.251C287.169 218.894 307.994 205.74 322.054 192.203C331.553 183.076 337.292 174.4 338.973 166.88L346 182.909C349.393 190.701 343.806 202.43 330.663 215.05Z" fill="#FFBA30"/>
<g filter="url(#filter1_d_37_612)">
<path d="M331.705 24.4734L318.955 113.724L331.577 115.526L344.327 26.2765L331.705 24.4734Z" fill="#57B690"/>
<path d="M360.329 92.3125L351.313 83.297L364.61 70L351.313 56.7031L360.329 47.6875L382.641 70L360.329 92.3125Z" fill="#57B690"/>
<path d="M298.673 70L311.969 83.297L302.954 92.3125L280.641 70L302.954 47.6875L311.969 56.7031L298.673 70Z" fill="#57B690"/>
</g>
<path d="M33.3537 191.796C36.0292 189.656 53.3705 176.595 55.61 176.595C57.8495 176.595 77.4106 181.054 77.4106 181.054L94.0979 192.172L101.51 212.189C101.51 212.189 108.922 213.299 115.225 213.676C121.527 214.052 124.123 215.539 124.123 218.868C124.123 222.198 122.26 224.814 117.068 224.814C111.875 224.814 97.0509 224.081 95.2672 221.841C93.4835 219.602 85.6155 205.986 85.6155 205.986L71.901 227.133C71.901 227.133 84.5057 235.655 88.9649 238.31C90.8875 239.535 92.3144 241.402 92.9928 243.578C93.6711 245.755 93.5571 248.101 92.671 250.202C91.1846 253.908 84.1489 273.568 80.7798 280.603C77.4106 287.639 71.8812 288.016 68.5516 285.796C65.2221 283.576 65.2221 279.85 67.0652 275.034C68.9084 270.218 76.7169 247.962 76.7169 247.962C76.7169 247.962 55.947 234.248 52.9345 231.651C49.9221 229.055 51.0716 223.486 51.8247 220.156C52.5778 216.827 68.9678 192.45 68.9678 192.45L55.2533 189.477C51.9011 191.753 48.435 193.857 44.8683 195.779C39.2993 198.752 34.2257 202.24 31.2529 198.534C29.7268 196.731 31.5898 193.223 33.3537 191.796Z" fill="#293871"/>
<path d="M44.1152 229.63L35.9499 242.789H11.0973C7.13354 242.789 4.61656 246.753 4.61656 250.023C4.53411 250.889 4.6375 251.762 4.91982 252.584C5.20214 253.407 5.65687 254.159 6.25358 254.791C6.85028 255.424 7.57519 255.921 8.37978 256.251C9.18436 256.58 10.0501 256.734 10.9189 256.702H42.0739L54.302 240.193C51.9098 239.328 49.7477 237.926 47.9819 236.094C46.216 234.263 44.8932 232.052 44.1152 229.63Z" fill="#293871"/>
<path d="M85.2786 171.957C85.2786 175.201 86.5669 178.311 88.8601 180.604C91.1534 182.897 94.2636 184.186 97.5067 184.186C100.75 184.186 103.86 182.897 106.153 180.604C108.447 178.311 109.735 175.201 109.735 171.957C109.735 168.714 108.447 165.604 106.153 163.311C103.86 161.018 100.75 159.729 97.5067 159.729C94.2636 159.729 91.1534 161.018 88.8601 163.311C86.5669 165.604 85.2786 168.714 85.2786 171.957Z" fill="#293871"/>
<path d="M70.1966 283.616C68.3407 283.614 66.527 283.062 64.9843 282.03C59.0387 278.067 61.7538 270.952 62.6655 268.633C64.1915 264.669 69.8795 248.477 71.7028 243.265C66.8869 240.074 51.785 230.006 49.169 227.727C45.1061 224.18 46.6124 217.342 47.3456 214.072C48.0789 210.802 57.8495 196.116 62.9033 188.585L53.3309 186.603C51.7058 187.693 47.8609 190.191 43.5405 192.549L41.6577 193.56C36.6237 196.315 30.9358 199.505 27.1306 194.709C26.5325 193.88 26.169 192.905 26.0783 191.886C25.9876 190.868 26.1731 189.844 26.6153 188.922C27.24 187.307 28.2626 185.875 29.5881 184.76C29.7863 184.602 49.6248 169.064 53.2318 169.064C55.5308 169.064 70.9299 172.512 75.6071 173.563C75.8687 173.623 76.1171 173.731 76.3404 173.88L93.0277 184.998C93.4174 185.256 93.7156 185.631 93.8799 186.068L100.836 204.856C103.215 205.193 108.466 205.867 113.064 206.125C116.354 206.323 124.064 206.779 124.064 213.537C124.064 218.65 120.596 221.702 114.789 221.702C113.956 221.702 94.2961 221.702 91.2044 217.937C89.7973 216.252 85.6155 209.117 83.158 204.837L72.6145 221.088C76.2611 223.545 84.5057 229.015 87.756 230.997C90.118 232.493 91.8776 234.773 92.7257 237.437C93.5738 240.101 93.4562 242.978 92.3935 245.564C91.9971 246.575 91.1648 248.775 90.1144 251.51C87.2605 259.199 82.9202 270.813 80.4627 276.006C79.7933 277.728 78.7488 279.28 77.405 280.548C76.0612 281.816 74.4518 282.77 72.6937 283.338C71.8775 283.542 71.0376 283.636 70.1966 283.616ZM52.9147 181.847H53.3903L67.1049 184.82C67.4619 184.896 67.7948 185.058 68.0739 185.294C68.353 185.529 68.5697 185.83 68.705 186.169C68.8402 186.508 68.8897 186.875 68.8492 187.238C68.8086 187.6 68.6792 187.948 68.4724 188.248C60.6638 199.763 52.2805 212.903 51.7454 214.944C51.2103 216.985 50.0806 222.455 52.1616 224.279C54.2425 226.102 69.9984 236.626 75.6665 240.411C76.0813 240.684 76.3926 241.088 76.5507 241.559C76.7088 242.029 76.7045 242.539 76.5386 243.007C76.2215 243.919 68.7102 265.343 66.8671 270.139C64.8852 275.53 66.0347 277.254 67.5013 278.245C68.0791 278.626 68.7307 278.881 69.4136 278.994C70.0964 279.106 70.7954 279.074 71.465 278.899C72.5944 278.475 73.6195 277.813 74.4709 276.958C75.3223 276.103 75.9801 275.075 76.3998 273.944C78.7781 268.93 83.2373 256.94 85.893 249.805C86.9632 246.951 87.8749 244.692 88.2118 243.661C88.8882 242.063 88.9809 240.278 88.4736 238.619C87.9664 236.959 86.8915 235.531 85.4372 234.584C80.978 231.929 68.7895 223.684 68.2742 223.347C67.7918 223.021 67.4571 222.518 67.3422 221.947C67.2273 221.376 67.3413 220.783 67.6598 220.295L81.3743 199.149C81.5835 198.818 81.8779 198.549 82.2266 198.371C82.5753 198.194 82.9655 198.113 83.3562 198.138C83.7376 198.15 84.1095 198.261 84.4358 198.458C84.7621 198.656 85.0319 198.935 85.2192 199.268C88.1523 204.42 93.1466 213.141 94.5736 214.805C96.3374 215.995 107.277 217.045 114.808 217.045C119.05 217.045 119.624 215.162 119.624 213.339C119.624 212.388 119.624 210.762 112.827 210.366C106.504 209.989 99.2112 208.899 98.9535 208.86C98.5583 208.803 98.1859 208.64 97.8755 208.389C97.5651 208.138 97.3281 207.807 97.1896 207.433L90.0153 188.09L74.2792 177.586C65.2816 175.604 55.3524 173.464 53.4696 173.285C50.695 174.276 36.3463 184.859 32.442 187.991C31.7313 188.618 31.1808 189.406 30.8367 190.29C30.7188 190.502 30.6441 190.736 30.6169 190.977C30.5897 191.219 30.6105 191.463 30.6781 191.697C31.9862 193.342 34.523 192.212 39.5767 189.418L41.5586 188.367C45.049 186.485 48.4423 184.428 51.7256 182.204C52.08 181.974 52.4925 181.85 52.9147 181.847Z" fill="#7D61C5"/>
<path d="M39.6956 253.432H8.54066C7.38175 253.459 6.22984 253.245 5.1584 252.802C4.08695 252.36 3.11949 251.699 2.31768 250.862C1.51588 250.024 0.89734 249.029 0.5015 247.94C0.10566 246.85 -0.0587924 245.69 0.01863 244.533C-0.0367251 242.135 0.841627 239.808 2.46846 238.045C4.09529 236.281 6.34345 235.218 8.73885 235.08H32.3429L39.8542 222.971C40.0765 222.62 40.3928 222.338 40.7673 222.158C41.1417 221.978 41.5591 221.907 41.9721 221.952C42.3851 221.997 42.777 222.158 43.1033 222.415C43.4296 222.672 43.6772 223.016 43.8179 223.407C44.4762 225.494 45.602 227.404 47.1097 228.991C48.6174 230.577 50.4672 231.799 52.5183 232.563C52.8666 232.659 53.1863 232.838 53.4495 233.086C53.7127 233.333 53.9115 233.641 54.0287 233.983C54.1459 234.325 54.1779 234.69 54.1219 235.047C54.0659 235.404 53.9236 235.742 53.7074 236.031L41.4793 252.54C41.2722 252.818 41.003 253.043 40.6933 253.198C40.3836 253.353 40.0419 253.433 39.6956 253.432ZM8.73885 239.559C6.10297 239.559 4.47783 242.472 4.47783 244.573C4.40551 245.144 4.45828 245.723 4.63248 246.272C4.80669 246.82 5.09815 247.324 5.48662 247.748C5.87509 248.172 6.35127 248.507 6.88208 248.729C7.41289 248.951 7.98562 249.054 8.56048 249.032H38.5858L48.4951 235.655C45.5956 234.035 43.1701 231.684 41.4595 228.837L35.5139 238.509C35.3066 238.844 35.0137 239.118 34.6654 239.303C34.3171 239.487 33.9259 239.576 33.532 239.559H8.6794H8.73885ZM95.1483 180.935C92.2869 180.935 89.4897 180.087 87.1105 178.497C84.7313 176.907 82.877 174.648 81.782 172.004C80.6869 169.361 80.4004 166.452 80.9587 163.645C81.5169 160.839 82.8948 158.261 84.9181 156.237C86.9415 154.214 89.5194 152.836 92.3258 152.278C95.1323 151.72 98.0412 152.006 100.685 153.101C103.328 154.196 105.588 156.051 107.178 158.43C108.767 160.809 109.616 163.606 109.616 166.468C109.611 170.303 108.085 173.98 105.373 176.692C102.661 179.404 98.9838 180.93 95.1483 180.935ZM95.1483 156.459C93.1688 156.459 91.2338 157.046 89.5879 158.146C87.942 159.246 86.6592 160.809 85.9017 162.638C85.1442 164.466 84.946 166.479 85.3322 168.42C85.7184 170.362 86.6716 172.145 88.0713 173.545C89.471 174.944 91.2543 175.898 93.1958 176.284C95.1372 176.67 97.1496 176.472 98.9784 175.714C100.807 174.957 102.37 173.674 103.47 172.028C104.57 170.382 105.157 168.447 105.157 166.468C105.152 163.815 104.095 161.272 102.22 159.396C100.344 157.521 97.8011 156.464 95.1483 156.459Z" fill="#7D61C5"/>
<g filter="url(#filter2_d_37_612)">
<path d="M441.891 146.562C442.892 146.562 443.704 145.751 443.704 144.75C443.704 143.749 442.892 142.938 441.891 142.938C440.89 142.938 440.079 143.749 440.079 144.75C440.079 145.751 440.89 146.562 441.891 146.562Z" fill="#DC5375"/>
<path d="M520.889 175.903C520.414 175.562 519.805 175.466 519.256 175.655L499.891 182.109V170.125C499.891 166.118 496.649 162.875 492.641 162.875H484.717C490.582 158.982 494.454 152.321 494.454 144.75C494.454 132.735 484.713 123 472.704 123C463.781 123 456.121 128.38 452.766 136.07C449.411 128.38 441.752 123 432.829 123C420.819 123 411.079 132.735 411.079 144.75C411.079 152.321 414.95 158.982 420.816 162.875H412.891C408.884 162.875 405.641 166.118 405.641 170.125V231.75C405.641 235.757 408.884 239 412.891 239H492.641C496.649 239 499.891 235.757 499.891 231.75V219.764L519.256 226.22C519.443 226.282 519.637 226.312 519.829 226.312C520.204 226.312 520.576 226.196 520.889 225.972C521.362 225.629 521.641 225.082 521.641 224.5V177.375C521.641 176.793 521.362 176.246 520.889 175.903ZM472.704 211.812C472.704 212.813 471.894 213.625 470.891 213.625H434.641C433.639 213.625 432.829 212.813 432.829 211.812V190.062C432.829 189.062 433.639 188.25 434.641 188.25H470.891C471.894 188.25 472.704 189.062 472.704 190.062V211.812ZM427.391 153.812C427.391 150.811 429.827 148.375 432.829 148.375C435.83 148.375 438.266 150.811 438.266 153.812C438.266 156.814 435.83 159.25 432.829 159.25C429.827 159.25 427.391 156.814 427.391 153.812ZM467.266 153.812C467.266 150.811 469.702 148.375 472.704 148.375C475.705 148.375 478.141 150.811 478.141 153.812C478.141 156.814 475.705 159.25 472.704 159.25C469.702 159.25 467.266 156.814 467.266 153.812ZM487.204 144.75C487.204 147.751 484.768 150.188 481.766 150.188C478.765 150.188 476.329 147.751 476.329 144.75C476.329 141.749 478.765 139.312 481.766 139.312C484.768 139.312 487.204 141.749 487.204 144.75ZM472.704 130.25C475.705 130.25 478.141 132.686 478.141 135.688C478.141 138.689 475.705 141.125 472.704 141.125C469.702 141.125 467.266 138.689 467.266 135.688C467.266 132.686 469.702 130.25 472.704 130.25ZM463.641 139.312C466.643 139.312 469.079 141.749 469.079 144.75C469.079 147.751 466.643 150.188 463.641 150.188C460.64 150.188 458.204 147.751 458.204 144.75C458.204 141.749 460.64 139.312 463.641 139.312ZM452.766 153.43C454.45 157.292 457.218 160.568 460.691 162.875H444.842C448.315 160.569 451.083 157.292 452.766 153.43ZM447.329 144.75C447.329 147.751 444.893 150.188 441.891 150.188C438.89 150.188 436.454 147.751 436.454 144.75C436.454 141.749 438.89 139.312 441.891 139.312C444.893 139.312 447.329 141.749 447.329 144.75ZM432.829 130.25C435.83 130.25 438.266 132.686 438.266 135.688C438.266 138.689 435.83 141.125 432.829 141.125C429.827 141.125 427.391 138.689 427.391 135.688C427.391 132.686 429.827 130.25 432.829 130.25ZM418.329 144.75C418.329 141.749 420.765 139.312 423.766 139.312C426.768 139.312 429.204 141.749 429.204 144.75C429.204 147.751 426.768 150.188 423.766 150.188C420.765 150.188 418.329 147.751 418.329 144.75ZM510.766 219.568L499.891 215.943V185.93L510.766 182.307V219.568ZM518.016 221.984L514.391 220.775V181.1L518.016 179.891V221.984Z" fill="#DC5375"/>
<path d="M432.829 155.625C433.83 155.625 434.641 154.814 434.641 153.812C434.641 152.811 433.83 152 432.829 152C431.828 152 431.016 152.811 431.016 153.812C431.016 154.814 431.828 155.625 432.829 155.625Z" fill="#DC5375"/>
<path d="M423.766 146.562C424.767 146.562 425.579 145.751 425.579 144.75C425.579 143.749 424.767 142.938 423.766 142.938C422.765 142.938 421.954 143.749 421.954 144.75C421.954 145.751 422.765 146.562 423.766 146.562Z" fill="#DC5375"/>
<path d="M432.829 137.5C433.83 137.5 434.641 136.689 434.641 135.688C434.641 134.686 433.83 133.875 432.829 133.875C431.828 133.875 431.016 134.686 431.016 135.688C431.016 136.689 431.828 137.5 432.829 137.5Z" fill="#DC5375"/>
<path d="M472.704 155.625C473.705 155.625 474.516 154.814 474.516 153.812C474.516 152.811 473.705 152 472.704 152C471.703 152 470.891 152.811 470.891 153.812C470.891 154.814 471.703 155.625 472.704 155.625Z" fill="#DC5375"/>
<path d="M472.704 137.5C473.705 137.5 474.516 136.689 474.516 135.688C474.516 134.686 473.705 133.875 472.704 133.875C471.703 133.875 470.891 134.686 470.891 135.688C470.891 136.689 471.703 137.5 472.704 137.5Z" fill="#DC5375"/>
<path d="M463.641 146.562C464.642 146.562 465.454 145.751 465.454 144.75C465.454 143.749 464.642 142.938 463.641 142.938C462.64 142.938 461.829 143.749 461.829 144.75C461.829 145.751 462.64 146.562 463.641 146.562Z" fill="#DC5375"/>
<path d="M481.766 146.562C482.767 146.562 483.579 145.751 483.579 144.75C483.579 143.749 482.767 142.938 481.766 142.938C480.765 142.938 479.954 143.749 479.954 144.75C479.954 145.751 480.765 146.562 481.766 146.562Z" fill="#DC5375"/>
<path d="M469.079 191.875H436.454V210H469.079V191.875Z" fill="#DC5375"/>
</g>
<g filter="url(#filter3_d_37_612)">
<path d="M305.253 285.081C302.635 284.449 300.838 287.655 302.742 289.559L338.567 325.384C339.449 325.148 340.375 325.023 341.331 325.023C347.222 325.023 351.998 329.798 351.998 335.689C351.998 341.581 347.222 346.356 341.331 346.356C335.44 346.356 330.664 341.581 330.664 335.689C330.664 334.734 330.79 333.808 331.025 332.927L295.2 297.102C293.296 295.198 290.091 296.995 290.723 299.614L306.813 366.274C307.3 368.293 308.915 369.846 310.952 370.253L341.7 376.402C340.948 378.318 341.345 380.58 342.893 382.128L358.893 398.128C360.976 400.21 364.352 400.21 366.436 398.128L403.769 360.794C405.852 358.711 405.852 355.335 403.769 353.252L387.769 337.252C386.221 335.704 383.959 335.306 382.044 336.059L375.894 305.311C375.487 303.274 373.934 301.659 371.916 301.172L305.253 285.081Z" fill="#7D61C5"/>
</g>
<g filter="url(#filter4_d_37_612)">
<path d="M143.606 300C138.292 299.913 133.922 311.698 139.306 313.915L142.418 315.177L148.641 309.758L148.011 301.542L144.97 300.284C144.585 300.133 144.236 300.046 143.851 300.011H143.606V300ZM190.594 302.769H189.79C187.203 302.874 184.441 303.511 181.644 304.78C174.232 308.16 166.401 316.201 160.772 331.259L124.797 428.59L124.762 428.66V428.73C125.077 428.905 126.021 429.394 127.559 430.129C130.985 431.807 135.95 435.617 136.684 443.693V443.868L136.334 463.307H170.107C170.072 457.153 170.596 451.245 172.938 445.302C177.029 435.023 186.678 426.108 206.851 418.382C206.851 418.312 206.851 418.382 206.886 418.242C206.99 417.543 207.025 416.144 206.886 414.396C206.536 410.865 205.487 405.691 203.879 399.643C200.662 387.511 195.209 371.604 189.055 355.976L188.216 353.809L190.034 352.341C202.655 342.482 207.899 332.623 208.843 324.526C209.787 316.464 206.571 310.024 201.397 306.258C198.355 304.052 194.649 302.766 190.594 302.755V302.769ZM154.899 308.933L155.143 312.433L152.486 314.74L160.073 317.862C160.492 317.103 160.947 316.366 161.401 315.649L162.8 312.191L154.899 308.933ZM179.022 315.422C182.098 315.422 184.615 317.925 184.615 321.016C184.615 324.106 182.098 326.609 179.022 326.609C175.945 326.609 173.428 324.106 173.428 321.016C173.428 317.925 175.945 315.422 179.022 315.422ZM131.23 332.797C125.916 332.692 121.476 344.474 126.93 346.712L130.006 347.97L136.229 342.551L135.635 334.301L132.559 333.042C132.174 332.902 131.824 332.832 131.475 332.797H131.23ZM142.487 341.712L142.732 345.208L140.075 347.516L147.032 350.348L149.2 344.474L142.487 341.712ZM167.52 348.635C170.596 348.635 173.113 351.152 173.113 354.228C173.113 357.305 170.596 359.822 167.52 359.822C164.443 359.822 161.926 357.305 161.926 354.228C161.926 351.152 164.443 348.635 167.52 348.635ZM118.644 366.325C113.295 366.22 108.925 378.002 114.309 380.239L117.421 381.498L123.644 376.079L123.014 367.828L119.973 366.57C119.588 366.43 119.238 366.36 118.889 366.325H118.644ZM129.902 375.24L130.146 378.736L127.489 381.043L134.621 383.945L136.789 378.072L129.902 375.24ZM153.395 381.987C156.472 381.987 158.989 384.505 158.989 387.581C158.989 390.658 156.472 393.175 153.395 393.175C150.319 393.175 147.802 390.658 147.802 387.581C147.802 384.505 150.319 381.987 153.395 381.987ZM104.415 401.006C99.101 400.901 94.7029 412.683 100.115 414.921L103.191 416.179L109.414 410.76L108.785 402.509L105.744 401.251C105.359 401.111 105.009 401.041 104.66 401.006H104.415ZM115.672 409.921L115.917 413.417L113.26 415.725L121.231 418.976L123.609 413.173L115.672 409.921ZM139.9 416.389C142.977 416.389 145.494 418.906 145.494 421.983C145.494 425.059 142.977 427.576 139.9 427.576C136.824 427.576 134.307 425.059 134.307 421.983C134.307 418.906 136.824 416.389 139.9 416.389Z" fill="#57B690"/>
</g>
<defs>
<filter id="filter0_d_37_612" x="97.6414" y="0" width="142" height="144" filterUnits="userSpaceOnUse" color-interpolation-filters="sRGB">
<feFlood flood-opacity="0" result="BackgroundImageFix"/>
<feColorMatrix in="SourceAlpha" type="matrix" values="0 0 0 0 0 0 0 0 0 0 0 0 0 0 0 0 0 0 127 0" result="hardAlpha"/>
<feOffset dx="4" dy="4"/>
<feComposite in2="hardAlpha" operator="out"/>
<feColorMatrix type="matrix" values="0 0 0 0 0.160784 0 0 0 0 0.219608 0 0 0 0 0.443137 0 0 0 1 0"/>
<feBlend mode="normal" in2="BackgroundImageFix" result="effect1_dropShadow_37_612"/>
<feBlend mode="normal" in="SourceGraphic" in2="effect1_dropShadow_37_612" result="shape"/>
</filter>
<filter id="filter1_d_37_612" x="280.641" y="24.4734" width="105" height="95.053" filterUnits="userSpaceOnUse" color-interpolation-filters="sRGB">
<feFlood flood-opacity="0" result="BackgroundImageFix"/>
<feColorMatrix in="SourceAlpha" type="matrix" values="0 0 0 0 0 0 0 0 0 0 0 0 0 0 0 0 0 0 127 0" result="hardAlpha"/>
<feOffset dx="3" dy="4"/>
<feComposite in2="hardAlpha" operator="out"/>
<feColorMatrix type="matrix" values="0 0 0 0 0.490196 0 0 0 0 0.380392 0 0 0 0 0.772549 0 0 0 1 0"/>
<feBlend mode="normal" in2="BackgroundImageFix" result="effect1_dropShadow_37_612"/>
<feBlend mode="normal" in="SourceGraphic" in2="effect1_dropShadow_37_612" result="shape"/>
</filter>
<filter id="filter2_d_37_612" x="405.641" y="123" width="120" height="120" filterUnits="userSpaceOnUse" color-interpolation-filters="sRGB">
<feFlood flood-opacity="0" result="BackgroundImageFix"/>
<feColorMatrix in="SourceAlpha" type="matrix" values="0 0 0 0 0 0 0 0 0 0 0 0 0 0 0 0 0 0 127 0" result="hardAlpha"/>
<feOffset dx="4" dy="4"/>
<feComposite in2="hardAlpha" operator="out"/>
<feColorMatrix type="matrix" values="0 0 0 0 0.388132 0 0 0 0 0.0998054 0 0 0 0 0.0998054 0 0 0 1 0"/>
<feBlend mode="normal" in2="BackgroundImageFix" result="effect1_dropShadow_37_612"/>
<feBlend mode="normal" in="SourceGraphic" in2="effect1_dropShadow_37_612" result="shape"/>
</filter>
<filter id="filter3_d_37_612" x="290.641" y="285" width="118.689" height="118.69" filterUnits="userSpaceOnUse" color-interpolation-filters="sRGB">
<feFlood flood-opacity="0" result="BackgroundImageFix"/>
<feColorMatrix in="SourceAlpha" type="matrix" values="0 0 0 0 0 0 0 0 0 0 0 0 0 0 0 0 0 0 127 0" result="hardAlpha"/>
<feOffset dx="4" dy="4"/>
<feComposite in2="hardAlpha" operator="out"/>
<feColorMatrix type="matrix" values="0 0 0 0 0.909804 0 0 0 0 0.964706 0 0 0 0 0.92549 0 0 0 1 0"/>
<feBlend mode="normal" in2="BackgroundImageFix" result="effect1_dropShadow_37_612"/>
<feBlend mode="normal" in="SourceGraphic" in2="effect1_dropShadow_37_612" result="shape"/>
</filter>
<filter id="filter4_d_37_612" x="97.6414" y="300" width="115.366" height="167.307" filterUnits="userSpaceOnUse" color-interpolation-filters="sRGB">
<feFlood flood-opacity="0" result="BackgroundImageFix"/>
<feColorMatrix in="SourceAlpha" type="matrix" values="0 0 0 0 0 0 0 0 0 0 0 0 0 0 0 0 0 0 127 0" result="hardAlpha"/>
<feOffset dx="4" dy="4"/>
<feComposite in2="hardAlpha" operator="out"/>
<feColorMatrix type="matrix" values="0 0 0 0 1 0 0 0 0 0.729412 0 0 0 0 0.188235 0 0 0 1 0"/>
<feBlend mode="normal" in2="BackgroundImageFix" result="effect1_dropShadow_37_612"/>
<feBlend mode="normal" in="SourceGraphic" in2="effect1_dropShadow_37_612" result="shape"/>
</filter>
</defs>
</svg>
